<svg width="20" height="19" fill="none" xmlns="http://www.w3.org/2000/svg"><path fill-rule="evenodd" clip-rule="evenodd" d="M2.798 2H0V0h4.44l.634 3.195a1 1 0 0 0 .98.805h10.06c2.095 0 3.544 2.092 2.809 4.053l-1.5 4A3 3 0 0 1 14.614 14h-5.33A5 5 0 0 1 4.38 9.973L2.798 2Zm2.826 3.97.718 3.614A3 3 0 0 0 9.284 12h5.33a1 1 0 0 0 .936-.649l1.5-4A1 1 0 0 0 16.114 6H6.054c-.145 0-.289-.01-.43-.03Z" fill="#2D3132"/><path d="M8 17.5a1.5 1.5 0 1 1-3 0 1.5 1.5 0 0 1 3 0Zm7.5 1.5a1.5 1.5 0 1 0 0-3 1.5 1.5 0 0 0 0 3Z" fill="#2D3132"/></svg>