<svg width="20" height="19" fill="none" xmlns="http://www.w3.org/2000/svg"><path d="M15 6a1 1 0 0 1-1 1H6a1 1 0 0 1 0-2h8a1 1 0 0 1 1 1ZM5 10a1 1 0 0 0 1 1h8a1 1 0 1 0 0-2H6a1 1 0 0 0-1 1Z" fill="#2D3132"/><path fill-rule="evenodd" clip-rule="evenodd" d="M4 0a4 4 0 0 0-4 4v12c0 1.881 1.936 3.14 3.655 2.375l4.57-2.03A3.998 3.998 0 0 1 9.848 16H16a4 4 0 0 0 4-4V4a4 4 0 0 0-4-4H4Zm12 2H4a2 2 0 0 0-2 2v12a.6.6 0 0 0 .843.548l4.569-2.03A6 6 0 0 1 9.849 14H16a2 2 0 0 0 2-2V4a2 2 0 0 0-2-2Z" fill="#2D3132"/></svg>